<svg xmlns="http://www.w3.org/2000/svg" viewBox="0 0 64 64">
  <defs>
    <linearGradient id="fbg" x1="0%" y1="0%" x2="100%" y2="100%">
      <stop offset="0%" style="stop-color:#1565c0"/>
      <stop offset="100%" style="stop-color:#0d47a1"/>
    </linearGradient>
  </defs>
  <rect width="64" height="64" rx="14" fill="url(#fbg)"/>
  <circle cx="32" cy="16" r="8" fill="#ffca28"/>
  <polygon points="12,42 22,26 32,42" fill="#2e7d32" opacity="0.8"/>
  <polygon points="26,42 36,28 46,42" fill="#388e3c" opacity="0.7"/>
  <path d="M5,46 Q18,40 32,46 Q46,52 58,46 L58,56 Q40,52 32,56 Q20,52 5,56 Z" fill="#4fc3f7" opacity="0.8"/>
  <line x1="32" y1="28" x2="32" y2="46" stroke="#fff" stroke-width="3" stroke-linecap="round"/>
  <path d="M32,46 Q32,54 26,54 Q20,54 20,48" stroke="#fff" stroke-width="3" fill="none" stroke-linecap="round"/>
  <g transform="translate(46,34) rotate(-20)">
    <ellipse cx="0" cy="0" rx="8" ry="4" fill="#fdd835"/>
    <polygon points="6,-3 12,0 6,3" fill="#fdd835"/>
  </g>
</svg>
