<svg xmlns="http://www.w3.org/2000/svg" viewBox="0 0 800 200">
  <defs>
    <linearGradient id="iconbg" x1="0%" y1="0%" x2="100%" y2="100%">
      <stop offset="0%" style="stop-color:#1565c0"/>
      <stop offset="100%" style="stop-color:#0d47a1"/>
    </linearGradient>
  </defs>
  <!-- Icon -->
  <rect x="10" y="10" width="180" height="180" rx="40" ry="40" fill="url(#iconbg)"/>
  <!-- Mini scene inside icon -->
  <circle cx="100" cy="55" r="22" fill="#ffca28"/>
  <polygon points="45,120 75,75 105,120" fill="#2e7d32" opacity="0.85"/>
  <polygon points="80,120 110,82 140,120" fill="#388e3c" opacity="0.7"/>
  <path d="M20,130 Q55,118 90,130 Q125,142 160,130 L180,130 L180,165 Q130,155 100,165 Q60,155 20,165 Z" fill="#4fc3f7" opacity="0.8"/>
  <line x1="100" y1="90" x2="100" y2="140" stroke="#fff" stroke-width="4" stroke-linecap="round"/>
  <path d="M100,140 Q100,162 82,162 Q64,162 64,148" stroke="#fff" stroke-width="4" fill="none" stroke-linecap="round"/>
  <g transform="translate(145,108) rotate(-20)">
    <ellipse cx="0" cy="0" rx="16" ry="8" fill="#fdd835"/>
    <polygon points="13,-6 25,0 13,6" fill="#fdd835"/>
  </g>
  <!-- Divider line -->
  <line x1="220" y1="40" x2="220" y2="160" stroke="#e0e0e0" stroke-width="2"/>
  <!-- Text: 渔乐 -->
  <text x="250" y="105" font-family="'PingFang SC','Microsoft YaHei','Noto Sans SC',sans-serif" font-size="72" font-weight="700" fill="#1565c0" letter-spacing="6">渔乐</text>
  <!-- Subtitle -->
  <text x="252" y="148" font-family="'PingFang SC','Microsoft YaHei','Noto Sans SC',sans-serif" font-size="24" fill="#757575" letter-spacing="4">管理后台 · Admin Console</text>
  <!-- Version badge -->
  <rect x="570" y="125" width="80" height="28" rx="14" fill="#e3f2fd"/>
  <text x="610" y="145" text-anchor="middle" font-family="'PingFang SC','Microsoft YaHei',sans-serif" font-size="14" fill="#1565c0" font-weight="600">v1.0</text>
</svg>
